<?xml version="1.0" encoding="utf-8"?>
<!-- Generator: Adobe Illustrator 26.1.0, SVG Export Plug-In . SVG Version: 6.00 Build 0)  -->
<svg version="1.1" xmlns="http://www.w3.org/2000/svg" xmlns:xlink="http://www.w3.org/1999/xlink" x="0px" y="0px"
	 viewBox="0 0 150 150" style="enable-background:new 0 0 150 150;" xml:space="preserve">
<style type="text/css">
	.st0{fill:#78557F;}
	.st1{fill:#C6B942;}
	.st2{fill:#557C7F;}
	.st3{fill:#C487C9;}
	.st4{fill:#8697CB;}
	.st5{fill:#A87C47;}
	.st6{fill:#87C9BC;}
	.st7{fill:#71C386;}
	.st8{fill:#FFFFFF;}
</style>
<g id="Слой_2">
</g>
<g id="Слой_1">
	<g>
		<path d="M137.5,50.5H11.8c-4.9,0-8.9-4-8.9-8.9V12.4c0-4.9,4-8.9,8.9-8.9h125.7c4.9,0,8.9,4,8.9,8.9v29.2
			C146.4,46.5,142.4,50.5,137.5,50.5z"/>
		<path d="M137.5,97.5H11.8c-4.9,0-8.9-4-8.9-8.9V59.5c0-4.9,4-8.9,8.9-8.9h125.7c4.9,0,8.9,4,8.9,8.9v29.2
			C146.4,93.5,142.4,97.5,137.5,97.5z"/>
		<path d="M137.5,144.6H11.8c-4.9,0-8.9-4-8.9-8.9v-29.2c0-4.9,4-8.9,8.9-8.9h125.7c4.9,0,8.9,4,8.9,8.9v29.2
			C146.4,140.6,142.4,144.6,137.5,144.6z"/>
		<circle cx="26.4" cy="27" r="8.7"/>
		<circle cx="124.2" cy="23.3" r="2.5"/>
		<circle cx="114.3" cy="23.3" r="2.5"/>
		<circle cx="129.1" cy="30.7" r="2.5"/>
		<circle cx="119.2" cy="30.7" r="2.5"/>
		<circle cx="104.4" cy="23.3" r="2.5"/>
		<circle cx="109.3" cy="30.7" r="2.5"/>
		<circle cx="94.5" cy="23.3" r="2.5"/>
		<circle cx="99.4" cy="30.7" r="2.5"/>
		<circle cx="84.6" cy="23.3" r="2.5"/>
		<circle cx="89.5" cy="30.7" r="2.5"/>
		<circle cx="26.4" cy="74" r="8.7"/>
		<circle cx="124.2" cy="70.3" r="2.5"/>
		<circle cx="114.3" cy="70.3" r="2.5"/>
		<circle cx="129.1" cy="77.7" r="2.5"/>
		<circle cx="119.2" cy="77.7" r="2.5"/>
		<circle cx="104.4" cy="70.3" r="2.5"/>
		<circle cx="109.3" cy="77.7" r="2.5"/>
		<circle cx="94.5" cy="70.3" r="2.5"/>
		<circle cx="99.4" cy="77.7" r="2.5"/>
		<circle cx="84.6" cy="70.3" r="2.5"/>
		<circle cx="89.5" cy="77.7" r="2.5"/>
		<circle cx="26.4" cy="121" r="8.7"/>
		<circle cx="124.2" cy="117.3" r="2.5"/>
		<circle cx="114.3" cy="117.3" r="2.5"/>
		<circle cx="129.1" cy="124.8" r="2.5"/>
		<circle cx="119.2" cy="124.8" r="2.5"/>
		<circle cx="104.4" cy="117.3" r="2.5"/>
		<circle cx="109.3" cy="124.8" r="2.5"/>
		<circle cx="94.5" cy="117.3" r="2.5"/>
		<circle cx="99.4" cy="124.8" r="2.5"/>
		<circle cx="84.6" cy="117.3" r="2.5"/>
		<circle cx="89.5" cy="124.8" r="2.5"/>
		<g>
			<circle cx="119.2" cy="119.8" r="29.7"/>
			<path d="M134.1,117.3h-12.4V105c0-1.4-1.1-2.5-2.5-2.5c-1.4,0-2.5,1.1-2.5,2.5v12.4h-12.4c-1.4,0-2.5,1.1-2.5,2.5
				c0,1.4,1.1,2.5,2.5,2.5h12.4v12.4c0,1.4,1.1,2.5,2.5,2.5c1.4,0,2.5-1.1,2.5-2.5v-12.4h12.4c1.4,0,2.5-1.1,2.5-2.5
				C136.5,118.4,135.4,117.3,134.1,117.3z"/>
		</g>
	</g>
	<g>
		<path class="st0" d="M136.6,49H10.9C6,49,2,45,2,40.1V10.9C2,6,6,2,10.9,2h125.7c4.9,0,8.9,4,8.9,8.9v29.2
			C145.5,45,141.5,49,136.6,49z"/>
		<path class="st1" d="M136.6,96H10.9C6,96,2,92,2,87.1V57.9C2,53,6,49,10.9,49h125.7c4.9,0,8.9,4,8.9,8.9v29.2
			C145.5,92,141.5,96,136.6,96z"/>
		<path class="st2" d="M136.6,143.1H10.9c-4.9,0-8.9-4-8.9-8.9V105C2,100,6,96,10.9,96h125.7c4.9,0,8.9,4,8.9,8.9v29.2
			C145.5,139.1,141.5,143.1,136.6,143.1z"/>
		<circle class="st3" cx="25.5" cy="25.5" r="8.7"/>
		<circle class="st4" cx="123.3" cy="21.8" r="2.5"/>
		<circle class="st4" cx="113.4" cy="21.8" r="2.5"/>
		<circle class="st4" cx="128.2" cy="29.2" r="2.5"/>
		<circle class="st4" cx="118.3" cy="29.2" r="2.5"/>
		<circle class="st4" cx="103.5" cy="21.8" r="2.5"/>
		<circle class="st4" cx="108.4" cy="29.2" r="2.5"/>
		<circle class="st4" cx="93.6" cy="21.8" r="2.5"/>
		<circle class="st4" cx="98.5" cy="29.2" r="2.5"/>
		<circle class="st4" cx="83.7" cy="21.8" r="2.5"/>
		<circle class="st4" cx="88.6" cy="29.2" r="2.5"/>
		<circle class="st5" cx="25.5" cy="72.5" r="8.7"/>
		<circle class="st4" cx="123.3" cy="68.8" r="2.5"/>
		<circle class="st4" cx="113.4" cy="68.8" r="2.5"/>
		<circle class="st4" cx="128.2" cy="76.2" r="2.5"/>
		<circle class="st4" cx="118.3" cy="76.2" r="2.5"/>
		<circle class="st4" cx="103.5" cy="68.8" r="2.5"/>
		<circle class="st4" cx="108.4" cy="76.2" r="2.5"/>
		<circle class="st4" cx="93.6" cy="68.8" r="2.5"/>
		<circle class="st4" cx="98.5" cy="76.2" r="2.5"/>
		<circle class="st4" cx="83.7" cy="68.8" r="2.5"/>
		<circle class="st4" cx="88.6" cy="76.2" r="2.5"/>
		<circle class="st6" cx="25.5" cy="119.5" r="8.7"/>
		<circle class="st4" cx="123.3" cy="115.8" r="2.5"/>
		<circle class="st4" cx="113.4" cy="115.8" r="2.5"/>
		<circle class="st4" cx="128.2" cy="123.3" r="2.5"/>
		<circle class="st4" cx="118.3" cy="123.3" r="2.5"/>
		<circle class="st4" cx="103.5" cy="115.8" r="2.5"/>
		<circle class="st4" cx="108.4" cy="123.3" r="2.5"/>
		<circle class="st4" cx="93.6" cy="115.8" r="2.5"/>
		<circle class="st4" cx="98.5" cy="123.3" r="2.5"/>
		<circle class="st4" cx="83.7" cy="115.8" r="2.5"/>
		<circle class="st4" cx="88.6" cy="123.3" r="2.5"/>
		<g>
			<circle class="st7" cx="118.3" cy="118.3" r="29.7"/>
			<path class="st8" d="M133.2,115.8h-12.4v-12.4c0-1.4-1.1-2.5-2.5-2.5s-2.5,1.1-2.5,2.5v12.4h-12.4c-1.4,0-2.5,1.1-2.5,2.5
				s1.1,2.5,2.5,2.5h12.4v12.4c0,1.4,1.1,2.5,2.5,2.5s2.5-1.1,2.5-2.5v-12.4h12.4c1.4,0,2.5-1.1,2.5-2.5S134.5,115.8,133.2,115.8z"
				/>
		</g>
	</g>
</g>
<g id="Слой_3">
</g>
</svg>
